# File created by Blade
# Date/Time:  Tue Jan 27 17:21:37 2015
# Frame Rate: 120.000 fps
#------------------------------------------------------
:FULLY-SPECIFIED
:DEGREES
4173
root -1.476192 37.846051 -1.891435 39.693146 17.485580 15.155918
Spine -9.679225 8.109427 -1.876273
Head -6.087346 20.431145 -21.982252
LeftShoulder -4.433100 -11.298074 3.209101
LeftArm -1.315904 -29.679382 -45.181493
LeftForeArm -8.100854 -0.000000 70.703110
LeftHand -16.899408 -0.000000 51.342633
LeftHandThumb1 -26.253704 0.000000 33.147579
RightShoulder -1.605974 -18.859221 -7.187037
RightArm 12.703291 -11.598681 51.319504
RightForeArm 191.645418 -0.000000 40.176771
RightHand -2.356714 0.000000 7.961607
RightHandThumb1 -24.326973 -0.000000 -32.862282
LeftUpLeg -5.146872 5.043455 11.779073
LeftLeg 73.250688 -0.000000 -0.000000
LeftFoot 1.079463 5.245487 -25.029303
LeftToeBase 10.836830 -0.000000 -0.000000
RightUpLeg -38.893659 -15.722983 1.003635
RightLeg 4.305155 -0.000000 -0.000000
RightFoot -8.590812 -3.470404 -0.984376
RightToeBase 3.144351 -0.000000 -0.000000
4174
root -1.481494 37.836321 -1.917820 39.674105 17.418775 15.000868
Spine -9.625549 8.174690 -1.794252
Head -6.083221 20.312710 -21.993295
LeftShoulder -4.450555 -11.335218 3.244185
LeftArm -1.448179 -29.632455 -45.033311
LeftForeArm -8.154222 -0.000000 70.738989
LeftHand -16.909962 -0.000000 51.461739
LeftHandThumb1 -26.253704 0.000000 33.147579
RightShoulder -1.567330 -18.769199 -7.173919
RightArm 12.813584 -11.460439 51.212155
RightForeArm 191.433946 0.000000 40.304067
RightHand -2.419226 -0.000000 7.978754
RightHandThumb1 -24.326973 -0.000000 -32.862282
LeftUpLeg -5.333591 4.948963 11.703993
LeftLeg 73.766505 -0.000000 -0.000000
LeftFoot 1.163050 5.120145 -25.237063
LeftToeBase 11.192935 -0.000000 -0.000000
RightUpLeg -38.963281 -15.439867 0.983048
RightLeg 4.353013 -0.000000 -0.000000
RightFoot -8.635653 -3.602585 -0.822504
RightToeBase 3.361438 -0.000000 -0.000000
4175
root -1.486541 37.825796 -1.940420 39.645619 17.375918 14.869839
Spine -9.575844 8.204759 -1.724714
Head -6.006630 20.230736 -21.881196
LeftShoulder -4.455986 -11.334663 3.265649
LeftArm -1.551669 -29.673172 -44.912641
LeftForeArm -8.199228 -0.000000 70.809567
LeftHand -16.982372 -0.000000 51.519472
LeftHandThumb1 -26.253704 0.000000 33.147579
RightShoulder -1.540409 -18.731232 -7.129205
RightArm 12.954538 -11.481180 50.998959
RightForeArm 191.821897 -0.000000 40.485267
RightHand -2.318976 -0.000000 8.166376
RightHandThumb1 -24.326973 -0.000000 -32.862282
LeftUpLeg -5.510016 4.878547 11.641784
LeftLeg 74.262626 -0.000000 -0.000000
LeftFoot 1.408051 5.039193 -25.101744
LeftToeBase 11.168124 -0.000000 -0.000000
RightUpLeg -38.995327 -15.164576 0.934020
RightLeg 4.385342 -0.000000 -0.000000
RightFoot -8.699299 -3.759364 -0.702308
RightToeBase 3.640837 -0.000000 -0.000000
4176
root -1.495417 37.814434 -1.958585 39.591431 17.307760 14.681504
Spine -9.534753 8.291746 -1.653123
Head -5.924596 20.145802 -21.730545
LeftShoulder -4.470193 -11.309833 3.295551
LeftArm -1.592594 -29.799389 -44.860305
LeftForeArm -8.197258 -0.000000 70.885251
LeftHand -17.081180 -0.000000 51.500852
LeftHandThumb1 -26.253704 0.000000 33.147579
RightShoulder -1.507118 -18.658562 -7.079996
RightArm 13.042912 -11.356130 50.887556
RightForeArm 191.545974 -0.000000 40.586731
RightHand -2.384048 -0.000000 8.148283
RightHandThumb1 -24.326973 -0.000000 -32.862282
LeftUpLeg -5.640045 4.883354 11.617361
LeftLeg 74.721375 -0.000000 -0.000000
LeftFoot 1.620310 4.962660 -25.079574
LeftToeBase 10.802818 -0.000000 -0.000000
RightUpLeg -39.028877 -14.835891 0.924907
RightLeg 4.421443 -0.000000 -0.000000
RightFoot -8.752867 -3.858832 -0.537291
RightToeBase 3.870730 -0.000000 -0.000000
4177
root -1.505792 37.803308 -1.977607 39.550657 17.248821 14.502656
Spine -9.509741 8.351580 -1.594385
Head -5.875243 20.008433 -21.569091
LeftShoulder -4.501573 -11.249025 3.342318
LeftArm -1.626061 -29.833026 -44.764339
LeftForeArm -8.280466 -0.000000 70.934790
LeftHand -17.107725 -0.000000 51.610357
LeftHandThumb1 -26.253704 0.000000 33.147579
RightShoulder -1.475029 -18.614817 -7.022025
RightArm 13.161534 -11.270115 50.785764
RightForeArm 191.794961 -0.000000 40.708195
RightHand -2.408289 0.000000 8.302437
RightHandThumb1 -24.326973 -0.000000 -32.862282
LeftUpLeg -5.787949 4.913412 11.596110
LeftLeg 75.158271 -0.000000 -0.000000
LeftFoot 1.843194 4.860357 -25.166044
LeftToeBase 10.841254 -0.000000 -0.000000
RightUpLeg -39.080733 -14.484547 0.889941
RightLeg 4.503066 -0.000000 -0.000000
RightFoot -8.798379 -4.050912 -0.385588
RightToeBase 4.012722 -0.000000 -0.000000
4178
root -1.512260 37.793582 -1.992928 39.500578 17.192940 14.367699
Spine -9.492670 8.398114 -1.582624
Head -5.672098 19.912998 -21.240585
LeftShoulder -4.494109 -11.208081 3.384943
LeftArm -1.654945 -29.969252 -44.721858
LeftForeArm -8.234858 -0.000000 70.972828
LeftHand -17.189474 -0.000000 51.716390
LeftHandThumb1 -26.253704 0.000000 33.147579
RightShoulder -1.435314 -18.591256 -6.954228
RightArm 13.252944 -11.165416 50.696880
RightForeArm 191.841151 -0.000000 40.816381
RightHand -2.325811 -0.000000 8.253992
RightHandThumb1 -24.326973 -0.000000 -32.862282
LeftUpLeg -5.901784 4.945247 11.548336
LeftLeg 75.539285 -0.000000 -0.000000
LeftFoot 1.945127 4.767848 -25.583386
LeftToeBase 11.377293 -0.000000 -0.000000
RightUpLeg -39.112111 -14.187105 0.829251
RightLeg 4.601508 -0.000000 -0.000000
RightFoot -8.887659 -4.209270 -0.242132
RightToeBase 4.264783 -0.000000 -0.000000
4179
root -1.520650 37.780452 -2.004044 39.351929 17.127150 14.140464
Spine -9.383283 8.516954 -1.472579
Head -5.595990 19.667501 -21.133737
LeftShoulder -4.448015 -11.269930 3.384182
LeftArm -1.807371 -30.047255 -44.582747
LeftForeArm -8.293377 -0.000000 71.038294
LeftHand -17.167026 -0.000000 51.748892
LeftHandThumb1 -26.253704 0.000000 33.147579
RightShoulder -1.383105 -18.510452 -6.940694
RightArm 13.299637 -10.965260 50.727431
RightForeArm 191.751711 0.000000 40.858790
RightHand -2.472295 -0.000000 8.194469
RightHandThumb1 -24.326973 -0.000000 -32.862282
LeftUpLeg -5.901621 5.046658 11.569978
LeftLeg 75.877020 -0.000000 -0.000000
LeftFoot 2.143721 4.745250 -25.616421
LeftToeBase 11.298446 -0.000000 -0.000000
RightUpLeg -39.060963 -13.817943 0.809156
RightLeg 4.697742 -0.000000 -0.000000
RightFoot -8.932999 -4.371892 -0.134298
RightToeBase 4.310366 -0.000000 -0.000000
4180
root -1.529200 37.769671 -2.017058 39.247634 17.050378 13.948444
Spine -9.324068 8.591728 -1.428681
Head -5.518263 19.428245 -20.912759
LeftShoulder -4.443333 -11.300421 3.419198
LeftArm -1.938438 -30.143443 -44.467725
LeftForeArm -8.328057 0.000000 71.145581
LeftHand -17.232668 0.000000 51.606047
LeftHandThumb1 -26.253704 0.000000 33.147579
RightShoulder -1.327126 -18.470709 -6.885188
RightArm 13.378583 -10.895994 50.646251
RightForeArm 191.846710 -0.000000 40.952381
RightHand -2.476331 -0.000000 8.366018
RightHandThumb1 -24.326973 -0.000000 -32.862282
LeftUpLeg -5.941519 5.205776 11.561006
LeftLeg 76.192995 -0.000000 -0.000000
LeftFoot 2.343083 4.734654 -25.461905
LeftToeBase 10.996068 -0.000000 -0.000000
RightUpLeg -39.065849 -13.510810 0.801836
RightLeg 4.804416 -0.000000 -0.000000
RightFoot -8.986098 -4.449408 0.007572
RightToeBase 4.515224 -0.000000 -0.000000
4181
root -1.533895 37.760370 -2.029286 39.212733 17.026994 13.870233
Spine -9.327687 8.550613 -1.460280
Head -5.409001 19.198476 -20.634927
LeftShoulder -4.447535 -11.286724 3.457997
LeftArm -2.009736 -30.215402 -44.353813
LeftForeArm -8.268450 -0.000000 71.211352
LeftHand -17.315618 -0.000000 51.676088
LeftHandThumb1 -26.253704 0.000000 33.147579
RightShoulder -1.298225 -18.442353 -6.832623
RightArm 13.474294 -10.882233 50.582104
RightForeArm 191.899857 -0.000000 41.041805
RightHand -2.383646 -0.000000 8.504147
RightHandThumb1 -24.326973 -0.000000 -32.862282
LeftUpLeg -6.046761 5.214100 11.465495
LeftLeg 76.472409 -0.000000 -0.000000
LeftFoot 2.428963 4.756783 -25.737957
LeftToeBase 10.974387 -0.000000 -0.000000
RightUpLeg -39.104533 -13.318636 0.738944
RightLeg 4.924945 -0.000000 -0.000000
RightFoot -9.084280 -4.517269 0.150900
RightToeBase 4.620269 -0.000000 -0.000000
